<mxfile host="65bd71144e">
    <diagram id="zMMnjsncDxi2hkjlAOFB" name="第 1 页">
        <mxGraphModel dx="601" dy="398" grid="1" gridSize="10" guides="1" tooltips="1" connect="1" arrows="1" fold="1" page="1" pageScale="1" pageWidth="827" pageHeight="1169" math="0" shadow="0">
            <root>
                <mxCell id="0"/>
                <mxCell id="1" parent="0"/>
                <mxCell id="2" value="&amp;lt;&amp;lt;keyword&amp;gt;&amp;gt;&lt;br&gt;&lt;b&gt;NetFrameworkEngine&lt;/b&gt;" style="swimlane;fontStyle=0;align=center;verticalAlign=top;childLayout=stackLayout;horizontal=1;startSize=55;horizontalStack=0;resizeParent=1;resizeParentMax=0;resizeLast=0;collapsible=0;marginBottom=0;html=1;" parent="1" vertex="1">
                    <mxGeometry x="120" y="158" width="190" height="223" as="geometry"/>
                </mxCell>
                <mxCell id="3" value="attributes" style="text;html=1;strokeColor=none;fillColor=none;align=center;verticalAlign=middle;spacingLeft=4;spacingRight=4;overflow=hidden;rotatable=0;points=[[0,0.5],[1,0.5]];portConstraint=eastwest;" parent="2" vertex="1">
                    <mxGeometry y="55" width="190" height="20" as="geometry"/>
                </mxCell>
                <mxCell id="41" value="- map ctxs_" style="text;html=1;strokeColor=none;fillColor=none;align=left;verticalAlign=middle;spacingLeft=4;spacingRight=4;overflow=hidden;rotatable=0;points=[[0,0.5],[1,0.5]];portConstraint=eastwest;" vertex="1" parent="2">
                    <mxGeometry y="75" width="190" height="20" as="geometry"/>
                </mxCell>
                <mxCell id="7" value="" style="line;strokeWidth=1;fillColor=none;align=left;verticalAlign=middle;spacingTop=-1;spacingLeft=3;spacingRight=3;rotatable=0;labelPosition=right;points=[];portConstraint=eastwest;" parent="2" vertex="1">
                    <mxGeometry y="95" width="190" height="8" as="geometry"/>
                </mxCell>
                <mxCell id="8" value="operations" style="text;html=1;strokeColor=none;fillColor=none;align=center;verticalAlign=middle;spacingLeft=4;spacingRight=4;overflow=hidden;rotatable=0;points=[[0,0.5],[1,0.5]];portConstraint=eastwest;" parent="2" vertex="1">
                    <mxGeometry y="103" width="190" height="20" as="geometry"/>
                </mxCell>
                <mxCell id="9" value="+ TcpServer addTcpServer()" style="text;html=1;strokeColor=none;fillColor=none;align=left;verticalAlign=middle;spacingLeft=4;spacingRight=4;overflow=hidden;rotatable=0;points=[[0,0.5],[1,0.5]];portConstraint=eastwest;" parent="2" vertex="1">
                    <mxGeometry y="123" width="190" height="20" as="geometry"/>
                </mxCell>
                <mxCell id="20" value="+ UdpServer addUdpServer()" style="text;html=1;strokeColor=none;fillColor=none;align=left;verticalAlign=middle;spacingLeft=4;spacingRight=4;overflow=hidden;rotatable=0;points=[[0,0.5],[1,0.5]];portConstraint=eastwest;" parent="2" vertex="1">
                    <mxGeometry y="143" width="190" height="20" as="geometry"/>
                </mxCell>
                <mxCell id="19" value="+ TcpCli connectWithTcp()" style="text;html=1;strokeColor=none;fillColor=none;align=left;verticalAlign=middle;spacingLeft=4;spacingRight=4;overflow=hidden;rotatable=0;points=[[0,0.5],[1,0.5]];portConstraint=eastwest;" parent="2" vertex="1">
                    <mxGeometry y="163" width="190" height="20" as="geometry"/>
                </mxCell>
                <mxCell id="21" value="+ UdpCli connectWithUdp()" style="text;html=1;strokeColor=none;fillColor=none;align=left;verticalAlign=middle;spacingLeft=4;spacingRight=4;overflow=hidden;rotatable=0;points=[[0,0.5],[1,0.5]];portConstraint=eastwest;" parent="2" vertex="1">
                    <mxGeometry y="183" width="190" height="20" as="geometry"/>
                </mxCell>
                <mxCell id="40" value="+ unRegister()" style="text;html=1;strokeColor=none;fillColor=none;align=left;verticalAlign=middle;spacingLeft=4;spacingRight=4;overflow=hidden;rotatable=0;points=[[0,0.5],[1,0.5]];portConstraint=eastwest;" parent="2" vertex="1">
                    <mxGeometry y="203" width="190" height="20" as="geometry"/>
                </mxCell>
                <mxCell id="18" style="edgeStyle=none;html=1;entryX=0.437;entryY=1.045;entryDx=0;entryDy=0;entryPerimeter=0;dashed=1;" parent="1" source="10" target="40" edge="1">
                    <mxGeometry relative="1" as="geometry"/>
                </mxCell>
                <mxCell id="10" value="&amp;lt;&amp;lt;keyword&amp;gt;&amp;gt;&lt;br&gt;&lt;b&gt;NetFrameworkEngineBaseEvent&lt;/b&gt;" style="swimlane;fontStyle=0;align=center;verticalAlign=top;childLayout=stackLayout;horizontal=1;startSize=55;horizontalStack=0;resizeParent=1;resizeParentMax=0;resizeLast=0;collapsible=0;marginBottom=0;html=1;" parent="1" vertex="1">
                    <mxGeometry x="10" y="438" width="250" height="183" as="geometry"/>
                </mxCell>
                <mxCell id="11" value="attributes" style="text;html=1;strokeColor=none;fillColor=none;align=center;verticalAlign=middle;spacingLeft=4;spacingRight=4;overflow=hidden;rotatable=0;points=[[0,0.5],[1,0.5]];portConstraint=eastwest;" parent="10" vertex="1">
                    <mxGeometry y="55" width="250" height="20" as="geometry"/>
                </mxCell>
                <mxCell id="12" value="attribute1" style="text;html=1;strokeColor=none;fillColor=none;align=left;verticalAlign=middle;spacingLeft=4;spacingRight=4;overflow=hidden;rotatable=0;points=[[0,0.5],[1,0.5]];portConstraint=eastwest;" parent="10" vertex="1">
                    <mxGeometry y="75" width="250" height="20" as="geometry"/>
                </mxCell>
                <mxCell id="13" value="inherited attribute2" style="text;html=1;strokeColor=none;fillColor=none;align=left;verticalAlign=middle;spacingLeft=4;spacingRight=4;overflow=hidden;rotatable=0;points=[[0,0.5],[1,0.5]];portConstraint=eastwest;fontColor=#808080;" parent="10" vertex="1">
                    <mxGeometry y="95" width="250" height="20" as="geometry"/>
                </mxCell>
                <mxCell id="14" value="..." style="text;html=1;strokeColor=none;fillColor=none;align=left;verticalAlign=middle;spacingLeft=4;spacingRight=4;overflow=hidden;rotatable=0;points=[[0,0.5],[1,0.5]];portConstraint=eastwest;" parent="10" vertex="1">
                    <mxGeometry y="115" width="250" height="20" as="geometry"/>
                </mxCell>
                <mxCell id="15" value="" style="line;strokeWidth=1;fillColor=none;align=left;verticalAlign=middle;spacingTop=-1;spacingLeft=3;spacingRight=3;rotatable=0;labelPosition=right;points=[];portConstraint=eastwest;" parent="10" vertex="1">
                    <mxGeometry y="135" width="250" height="8" as="geometry"/>
                </mxCell>
                <mxCell id="16" value="operations" style="text;html=1;strokeColor=none;fillColor=none;align=center;verticalAlign=middle;spacingLeft=4;spacingRight=4;overflow=hidden;rotatable=0;points=[[0,0.5],[1,0.5]];portConstraint=eastwest;" parent="10" vertex="1">
                    <mxGeometry y="143" width="250" height="20" as="geometry"/>
                </mxCell>
                <mxCell id="17" value="operation1" style="text;html=1;strokeColor=none;fillColor=none;align=left;verticalAlign=middle;spacingLeft=4;spacingRight=4;overflow=hidden;rotatable=0;points=[[0,0.5],[1,0.5]];portConstraint=eastwest;" parent="10" vertex="1">
                    <mxGeometry y="163" width="250" height="20" as="geometry"/>
                </mxCell>
                <mxCell id="22" value="&amp;lt;&amp;lt;keyword&amp;gt;&amp;gt;&lt;br&gt;&lt;b&gt;OutputStreamBaseEvent&lt;/b&gt;" style="swimlane;fontStyle=0;align=center;verticalAlign=top;childLayout=stackLayout;horizontal=1;startSize=55;horizontalStack=0;resizeParent=1;resizeParentMax=0;resizeLast=0;collapsible=0;marginBottom=0;html=1;" parent="1" vertex="1">
                    <mxGeometry x="790" y="100" width="160" height="143" as="geometry"/>
                </mxCell>
                <mxCell id="23" value="attributes" style="text;html=1;strokeColor=none;fillColor=none;align=center;verticalAlign=middle;spacingLeft=4;spacingRight=4;overflow=hidden;rotatable=0;points=[[0,0.5],[1,0.5]];portConstraint=eastwest;" parent="22" vertex="1">
                    <mxGeometry y="55" width="160" height="20" as="geometry"/>
                </mxCell>
                <mxCell id="30" value="- bufferevent buf_" style="text;html=1;strokeColor=none;fillColor=none;align=left;verticalAlign=middle;spacingLeft=4;spacingRight=4;overflow=hidden;rotatable=0;points=[[0,0.5],[1,0.5]];portConstraint=eastwest;" parent="22" vertex="1">
                    <mxGeometry y="75" width="160" height="20" as="geometry"/>
                </mxCell>
                <mxCell id="24" value="" style="line;strokeWidth=1;fillColor=none;align=left;verticalAlign=middle;spacingTop=-1;spacingLeft=3;spacingRight=3;rotatable=0;labelPosition=right;points=[];portConstraint=eastwest;" parent="22" vertex="1">
                    <mxGeometry y="95" width="160" height="8" as="geometry"/>
                </mxCell>
                <mxCell id="25" value="operations" style="text;html=1;strokeColor=none;fillColor=none;align=center;verticalAlign=middle;spacingLeft=4;spacingRight=4;overflow=hidden;rotatable=0;points=[[0,0.5],[1,0.5]];portConstraint=eastwest;" parent="22" vertex="1">
                    <mxGeometry y="103" width="160" height="20" as="geometry"/>
                </mxCell>
                <mxCell id="29" value="+ write()" style="text;html=1;strokeColor=none;fillColor=none;align=left;verticalAlign=middle;spacingLeft=4;spacingRight=4;overflow=hidden;rotatable=0;points=[[0,0.5],[1,0.5]];portConstraint=eastwest;" parent="22" vertex="1">
                    <mxGeometry y="123" width="160" height="20" as="geometry"/>
                </mxCell>
                <mxCell id="31" value="&amp;lt;&amp;lt;keyword&amp;gt;&amp;gt;&lt;br&gt;&lt;b&gt;TcpServer&lt;/b&gt;" style="swimlane;fontStyle=0;align=center;verticalAlign=top;childLayout=stackLayout;horizontal=1;startSize=55;horizontalStack=0;resizeParent=1;resizeParentMax=0;resizeLast=0;collapsible=0;marginBottom=0;html=1;" parent="1" vertex="1">
                    <mxGeometry x="470" y="158" width="190" height="163" as="geometry"/>
                </mxCell>
                <mxCell id="32" value="attributes" style="text;html=1;strokeColor=none;fillColor=none;align=center;verticalAlign=middle;spacingLeft=4;spacingRight=4;overflow=hidden;rotatable=0;points=[[0,0.5],[1,0.5]];portConstraint=eastwest;" parent="31" vertex="1">
                    <mxGeometry y="55" width="190" height="20" as="geometry"/>
                </mxCell>
                <mxCell id="33" value="- OutputStreamBaseEvent os_" style="text;html=1;strokeColor=none;fillColor=none;align=left;verticalAlign=middle;spacingLeft=4;spacingRight=4;overflow=hidden;rotatable=0;points=[[0,0.5],[1,0.5]];portConstraint=eastwest;" parent="31" vertex="1">
                    <mxGeometry y="75" width="190" height="20" as="geometry"/>
                </mxCell>
                <mxCell id="34" value="" style="line;strokeWidth=1;fillColor=none;align=left;verticalAlign=middle;spacingTop=-1;spacingLeft=3;spacingRight=3;rotatable=0;labelPosition=right;points=[];portConstraint=eastwest;" parent="31" vertex="1">
                    <mxGeometry y="95" width="190" height="8" as="geometry"/>
                </mxCell>
                <mxCell id="35" value="operations" style="text;html=1;strokeColor=none;fillColor=none;align=center;verticalAlign=middle;spacingLeft=4;spacingRight=4;overflow=hidden;rotatable=0;points=[[0,0.5],[1,0.5]];portConstraint=eastwest;" parent="31" vertex="1">
                    <mxGeometry y="103" width="190" height="20" as="geometry"/>
                </mxCell>
                <mxCell id="36" value="+ write()" style="text;html=1;strokeColor=none;fillColor=none;align=left;verticalAlign=middle;spacingLeft=4;spacingRight=4;overflow=hidden;rotatable=0;points=[[0,0.5],[1,0.5]];portConstraint=eastwest;" parent="31" vertex="1">
                    <mxGeometry y="123" width="190" height="20" as="geometry"/>
                </mxCell>
                <mxCell id="39" value="+ close()" style="text;html=1;strokeColor=none;fillColor=none;align=left;verticalAlign=middle;spacingLeft=4;spacingRight=4;overflow=hidden;rotatable=0;points=[[0,0.5],[1,0.5]];portConstraint=eastwest;" parent="31" vertex="1">
                    <mxGeometry y="143" width="190" height="20" as="geometry"/>
                </mxCell>
                <mxCell id="37" style="edgeStyle=none;html=1;entryX=0;entryY=0.25;entryDx=0;entryDy=0;endArrow=block;endFill=0;exitX=1;exitY=0.5;exitDx=0;exitDy=0;" parent="1" source="33" target="22" edge="1">
                    <mxGeometry relative="1" as="geometry"/>
                </mxCell>
                <mxCell id="38" style="edgeStyle=none;html=1;entryX=0;entryY=0.25;entryDx=0;entryDy=0;endArrow=block;endFill=0;exitX=1;exitY=0.5;exitDx=0;exitDy=0;" parent="1" source="9" target="31" edge="1">
                    <mxGeometry relative="1" as="geometry"/>
                </mxCell>
            </root>
        </mxGraphModel>
    </diagram>
</mxfile>